<?xml version="1.0" encoding="utf-8"?>
<!-- Generator: Adobe Illustrator 15.0.0, SVG Export Plug-In . SVG Version: 6.00 Build 0)  -->
<!DOCTYPE svg PUBLIC "-//W3C//DTD SVG 1.1//EN" "http://www.w3.org/Graphics/SVG/1.1/DTD/svg11.dtd">
<svg version="1.1" id="Layer_1" xmlns="http://www.w3.org/2000/svg" xmlns:xlink="http://www.w3.org/1999/xlink" x="0px" y="0px"
	 width="134.1px" height="134.838px" viewBox="0 0 134.1 134.838" enable-background="new 0 0 134.1 134.838" xml:space="preserve">
<path fill="#B1CFEC" d="M132.417,67.662c0,35.855-29.066,64.922-64.918,64.922c-35.855,0-64.922-29.066-64.922-64.922
	c0-35.853,29.066-64.919,64.922-64.919C103.351,2.743,132.417,31.81,132.417,67.662z"/>
<path fill-rule="evenodd" clip-rule="evenodd" fill="#FFFFFF" d="M56.285,78.772c1.582,3.448,0.976,7.654-1.867,10.497
	c-2.792,2.81-6.947,3.449-10.364,1.919l-0.353-0.186c-0.724-0.387-1.211-1.145-1.211-2.002c0-0.673,0.285-1.263,0.74-1.682
	c0.219-0.203,9.32-9.304,9.32-9.304c0.892-0.893,2.323-0.893,3.197,0c0.15,0.134,0.269,0.285,0.353,0.438L56.285,78.772z
	 M65.035,62.133c0-1.548,1.262-2.81,2.809-2.81c1.549,0,2.809,1.262,2.809,2.81c0,1.565-1.26,2.827-2.809,2.827
	C66.297,64.96,65.035,63.698,65.035,62.133z M78.544,72.851h3.365c0.302,0,0.588-0.119,0.823-0.336c0.438-0.439,0.438-1.162,0-1.6
	c-0.302-0.285-4.087-4.83-4.087-4.83s3.785-4.541,4.087-4.826c0.438-0.455,0.438-1.162,0-1.615c-0.235-0.202-0.521-0.32-0.823-0.32
	h-5.418c-2.456-4.054-6.932-6.763-12.03-6.763c-7.772,0-14.08,6.308-14.08,14.081c0,4.678-3.785,8.463-8.444,8.463H31.201
	c-1.245,0-2.255,1.009-2.255,2.237l0.017,0.319c4.072,11.34,12.332,21.922,22.545,22.124c0.738,0.067,1.498,0.101,2.254,0.101
	c0.757,0,1.515-0.033,2.255-0.101c18.068-1.816,22.342-17.076,22.527-24.681V72.851z"/>
<path fill="#E38476" d="M76.173,44.155c0.18-1.385-0.794-2.653-2.176-2.836c-1.387-0.182-2.655,0.795-2.838,2.178
	c-0.087,0.646-0.117,1.607,0.672,2.639c0.792,1.029,3.615,3.533,3.615,3.533s3.375-1.688,4.405-2.48
	c1.031-0.791,1.249-1.729,1.332-2.373c0.183-1.386-0.791-2.654-2.177-2.837C77.624,41.798,76.353,42.771,76.173,44.155"/>
<g>
	<defs>
		<rect id="SVGID_1_" x="1.417" y="1.838" width="131" height="131"/>
	</defs>
	<clipPath id="SVGID_2_">
		<use xlink:href="#SVGID_1_"  overflow="visible"/>
	</clipPath>
	<g clip-path="url(#SVGID_2_)">
		<defs>
			<path id="SVGID_3_" d="M132.171,67.697c0,35.855-29.066,64.922-64.918,64.922c-35.855,0-64.922-29.066-64.922-64.922
				c0-35.852,29.066-64.918,64.922-64.918C103.104,2.779,132.171,31.846,132.171,67.697z"/>
		</defs>
		<clipPath id="SVGID_4_">
			<use xlink:href="#SVGID_3_"  overflow="visible"/>
		</clipPath>
		<g clip-path="url(#SVGID_4_)">
			<defs>
				<rect id="SVGID_5_" x="12.417" y="25.838" width="118" height="101"/>
			</defs>
			<clipPath id="SVGID_6_">
				<use xlink:href="#SVGID_5_"  overflow="visible"/>
			</clipPath>
			<circle clip-path="url(#SVGID_6_)" fill="none" stroke="#579ACC" stroke-width="9.2907" cx="68.444" cy="60.146" r="28.77"/>
			
				<line clip-path="url(#SVGID_6_)" fill="none" stroke="#579ACC" stroke-width="16.1749" stroke-linecap="round" x1="90.335" y1="85.025" x2="121.823" y2="118.482"/>
		</g>
	</g>
</g>
</svg>
