<?xml version="1.0" encoding="utf-8"?>
<!-- Generator: Adobe Illustrator 15.0.0, SVG Export Plug-In . SVG Version: 6.00 Build 0)  -->
<!DOCTYPE svg PUBLIC "-//W3C//DTD SVG 1.1//EN" "http://www.w3.org/Graphics/SVG/1.1/DTD/svg11.dtd">
<svg version="1.1" id="Layer_1" xmlns="http://www.w3.org/2000/svg" xmlns:xlink="http://www.w3.org/1999/xlink" x="0px" y="0px"
	 width="163px" height="166px" viewBox="11.5 11.5 163 166" enable-background="new 11.5 11.5 163 166" xml:space="preserve">
<g>
	<path fill="#E38476" d="M92.891,20.798c-41.422,0-74.999,33.579-74.999,75c0,41.423,33.577,75,74.999,75
		c41.423,0,75.001-33.577,75.001-75C167.893,54.377,134.314,20.798,92.891,20.798z"/>
	<g>
		<polygon fill="#FFFFFF" points="103.348,57.8 102.966,104.037 83.582,104.037 82.436,57.8 		"/>
		<path fill="#FFFFFF" d="M102.04,130.055c-2.551,2.493-5.627,3.742-9.226,3.742c-3.754,0-6.836-1.208-9.254-3.636
			c-2.423-2.418-3.632-5.501-3.632-9.25c0-3.639,1.255-6.725,3.766-9.254c2.512-2.529,5.549-3.788,9.121-3.788
			c3.568,0,6.638,1.289,9.193,3.875c2.57,2.583,3.848,5.658,3.848,9.226C105.858,124.541,104.583,127.562,102.04,130.055z"/>
	</g>
</g>
</svg>
