<?xml version="1.0" encoding="UTF-8" standalone="no"?>
<!-- Created with Inkscape (http://www.inkscape.org/) -->

<svg
   xmlns:dc="http://purl.org/dc/elements/1.1/"
   xmlns:cc="http://creativecommons.org/ns#"
   xmlns:rdf="http://www.w3.org/1999/02/22-rdf-syntax-ns#"
   xmlns:svg="http://www.w3.org/2000/svg"
   xmlns="http://www.w3.org/2000/svg"
   xmlns:sodipodi="http://sodipodi.sourceforge.net/DTD/sodipodi-0.dtd"
   xmlns:inkscape="http://www.inkscape.org/namespaces/inkscape"
   width="1000"
   height="500"
   id="svg2"
   version="1.1"
   inkscape:version="0.48.4 r9939"
   sodipodi:docname="marketing.pdf">
  <defs
     id="defs4">
    <path
       id="path-1"
       d="m 0,2 0,18 c 0,2 2.0606061,2 2.0606061,2 L 13.939394,22 C 13.939394,22 16,22 16,20 L 16,2 C 16,0 13.939394,0 13.939394,0 L 2.0606061,0 C 2.0606061,0 0,0 0,2 z M 1,2.0345021 1,17.965498 C 1,19 2.1111111,19 2.1111111,19 L 13.888889,19 C 13.888889,19 15,19 15,17.965498 L 15,2.0345021 C 15,1 13.888889,1 13.888889,1 L 2.1111111,1 C 2.1111111,1 1,1 1,2.0345021 z M 8.7493248,20.494263 c 0,-0.414214 -0.3468288,-0.75 -0.7746639,-0.75 -0.4278351,0 -0.774664,0.335786 -0.774664,0.75 0,0.414213 0.3468289,0.75 0.774664,0.75 0.4278351,0 0.7746639,-0.335787 0.7746639,-0.75 z"
       inkscape:connector-curvature="0" />
    <path
       id="path-1-5"
       d="M 0,2.0030817 0,20.030817 c 0,2.003081 2,2.003081 2,2.003081 l 7,0 c 0,0 2,0 2,-2.003081 L 11,2.0030817 C 11,0 9,0 9,0 L 2,0 C 2,0 0,0 0,2.0030817 z M 1,2.5 l 0,16 9,0 0,-16 -9,0 0,0 z m 4.5,18.699997 c 0.5522848,0 1,-0.447715 1,-1 0,-0.552285 -0.4477152,-1 -1,-1 -0.5522848,0 -1,0.447715 -1,1 0,0.552285 0.4477152,1 1,1 l 0,0 z M 4.1327772,1 C 4.0594464,1 4,1.0965536 4,1.2211029 l 0,0.058565 c 0,0.1221117 0.059926,0.2211028 0.1327772,0.2211028 l 2.7344456,0 C 6.9405537,1.5007704 7,1.4042168 7,1.2796676 L 7,1.2211029 C 7,1.0989911 6.9400739,1 6.8672228,1 l -2.7344456,0 0,0 z"
       inkscape:connector-curvature="0" />
    <mask
       id="mask4769"
       maskUnits="userSpaceOnUse">
      <path
         id="path4771"
         d="M 8.129,100.789 C 8.043,101.532 8,102.271 8,103 c 0,6.976 3.633,13.42 9.544,17.049 0.497,2.667 1.322,5.356 2.416,7.951 32.050835,19.5388 13.321503,10.27005 78.322136,23.91585 C 107.65614,151.91585 97,120.607 97,127.5 l -0.035,0.5 11.191,0 c 1.039,-2.603 1.827,-5.291 2.31,-7.958 C 116.371,116.411 120,109.97 120,103 c 0,-0.729 -0.043,-1.468 -0.129,-2.211 C 126.186,99.663 131,94.126 131,87.5 131,80.056 124.943,74 117.5,74 c -6.008,0 -11.199,3.971 -12.902,9.548 -3.277,-0.787 -6.649,-0.731 -10.044,0.233 l -2.02,0.574 0.671,1.989 c 1.666,4.936 1.611,8.314 0.857,9.365 -0.121,0.169 -0.281,0.333 -0.777,0.334 l -0.311,-0.021 c -1.102,-0.131 -2.244,-0.616 -3.69,-1.229 -2.728,-1.157 -6.12,-2.598 -11.63,-2.758 l -1.045,-0.03 -0.621,0.84 c -0.816,1.104 -2.259,2.308 -6.764,2.855 l -3.554,0.433 2.231,2.799 c 0.326,0.41 0.548,0.858 0.658,1.331 l 0.08,0.224 -0.018,0.16 0.026,0.36 c 0,3.277 -3.196,8.992 -5.028,8.992 -1.833,0 -5.028,-5.715 -5.024,-9.042 l 0.02,-0.317 -0.012,-0.116 0.07,-0.25 c 0.1,-0.469 0.302,-0.911 0.6,-1.316 l 2.079,-2.821 -3.486,-0.354 C 53.12,95.3 51.774,94.136 51.026,92.95 l -0.616,-0.977 -1.152,0.044 c -5.371,0.205 -8.718,1.613 -11.408,2.744 -1.462,0.614 -2.617,1.1 -3.735,1.231 l -0.319,0.021 c -0.521,0 -0.687,-0.173 -0.812,-0.35 -0.768,-1.08 -0.799,-4.525 0.945,-9.539 L 34.66,84.02 32.491,83.518 C 29.473,82.82 26.387,82.83 23.4,83.547 21.699,77.971 16.507,74 10.5,74 3.056,74 -3,80.056 -3,87.5 c 0,6.626 4.814,12.163 11.129,13.289 z"
         inkscape:connector-curvature="0"
         style="fill:#72b1d9;fill-opacity:1"
         sodipodi:nodetypes="cscccccccscssccccccccccccccccccsccccccccccccccccccssc" />
    </mask>
    <path
       d="m 64,0 c 35.346,0 64,28.654 64,64 0,35.347 -28.654,64 -64,64 C 28.654,128 0,99.347 0,64 0,28.654 28.654,0 64,0 z"
       id="a"
       inkscape:connector-curvature="0" />
    <mask
       id="mask4562"
       maskUnits="userSpaceOnUse">
      <path
         inkscape:connector-curvature="0"
         id="path4564"
         d="m -57.31645,887.08022 17.25,-97.5 -56.25,-35.5 -54.5,61.5 -32.75,-19 -20.5,19.5 19,100 z"
         style="fill:#72b1d9;fill-opacity:1;stroke:none" />
    </mask>
    <mask
       id="mask4528"
       maskUnits="userSpaceOnUse">
      <path
         style="fill:none;stroke:#ffffff;stroke-width:4.30912638;stroke-linecap:butt;stroke-linejoin:miter;stroke-miterlimit:4;stroke-opacity:1;stroke-dasharray:none"
         d="m -210.33333,824.42457 26.11564,-28.40249 32.64454,21.21199 55.26611,-63.85493 54.5732,35.09292"
         id="path4530"
         inkscape:connector-curvature="0"
         sodipodi:nodetypes="ccccc" />
    </mask>
    <linearGradient
       y2="251.0303"
       y1="251.0303"
       x2="271"
       x1="242"
       id="SVGID_1_-8-8"
       gradientUnits="userSpaceOnUse">
      <stop
         id="stop5095-8"
         style="stop-color:#EFEFEF"
         offset="0" />
      <stop
         id="stop5097-7"
         style="stop-color:#E6E6E6"
         offset="1" />
    </linearGradient>
    <clipPath
       id="clipPath3957"
       clipPathUnits="userSpaceOnUse">
      <path
         id="path3959"
         d="m 6.64795,325.408 386.00005,0 0,-252.8855 -386.00005,0 0,252.8855 z"
         inkscape:connector-curvature="0" />
    </clipPath>
    <clipPath
       id="clipPath3949"
       clipPathUnits="userSpaceOnUse">
      <path
         id="path3951"
         d="m 0,331.333 398,0 L 398,0 0,0 0,331.333 z"
         inkscape:connector-curvature="0" />
    </clipPath>
  </defs>
  <sodipodi:namedview
     id="base"
     pagecolor="#ffffff"
     bordercolor="#666666"
     borderopacity="1.0"
     inkscape:pageopacity="0.0"
     inkscape:pageshadow="2"
     inkscape:zoom="0.70710678"
     inkscape:cx="452.10337"
     inkscape:cy="383.61504"
     inkscape:document-units="px"
     inkscape:current-layer="layer1"
     showgrid="false"
     inkscape:window-width="1855"
     inkscape:window-height="1056"
     inkscape:window-x="65"
     inkscape:window-y="24"
     inkscape:window-maximized="1"
     showguides="false"
     inkscape:guide-bbox="true" />
  <metadata
     id="metadata7">
    <rdf:RDF>
      <cc:Work
         rdf:about="">
        <dc:format>image/svg+xml</dc:format>
        <dc:type
           rdf:resource="http://purl.org/dc/dcmitype/StillImage" />
        <dc:title></dc:title>
      </cc:Work>
    </rdf:RDF>
  </metadata>
  <g
     inkscape:label="Camada 1"
     inkscape:groupmode="layer"
     id="layer1"
     transform="translate(0,-552.36165)">
    <g
       id="g4698"
       transform="matrix(-0.47991972,-0.47991972,0.47991972,-0.47991972,-385.43434,692.21949)">
      <g
         inkscape:transform-center-y="-14.516951"
         inkscape:transform-center-x="-7.2473054"
         style="fill:none;stroke:none"
         transform="matrix(-1.3728257,1.3728257,-1.3728257,-1.3728257,250.65488,-10.463087)"
         id="miu-3">
        <g
           id="device_iPhone_smart-phone_vertical_glyph" />
      </g>
    </g>
    <g
       id="g5638"
       transform="translate(-594.33499,584.35582)"
       inkscape:export-filename="/home/livia/Área de Trabalho/seo.png"
       inkscape:export-xdpi="458.67285"
       inkscape:export-ydpi="458.67285" />
    <g
       transform="matrix(1.4956201,0,0,0.1830477,-77.8852,858.42655)"
       id="g5257">
      <rect
         y="-563.7326"
         x="-991.41638"
         height="77.920021"
         width="55.082775"
         id="rect3091"
         style="fill:#f58676;fill-opacity:1;stroke:none"
         transform="matrix(0,-1,-1,0,0,0)" />
      <rect
         style="fill:#82c4b6;fill-opacity:1;stroke:none"
         id="rect4092"
         width="55.079826"
         height="219.7916"
         x="-991.41516"
         y="-488.48157"
         transform="matrix(0,-1,-1,0,0,0)" />
      <rect
         style="fill:#a6d1ed;fill-opacity:1;stroke:none"
         id="rect4108"
         width="55.082775"
         height="211.92903"
         x="-991.41638"
         y="-271.95847"
         transform="matrix(0,-1,-1,0,0,0)" />
      <rect
         y="-712.7406"
         x="-991.41638"
         height="152.62888"
         width="55.082775"
         id="rect4110"
         style="fill:#735c4c;fill-opacity:1;stroke:none"
         transform="matrix(0,-1,-1,0,0,0)" />
    </g>
    <g
       id="businessman_2_"
       transform="matrix(2.69102,0,0,2.69102,545.89832,521.02609)"
       inkscape:export-filename="/home/livia/Área de Trabalho/person.png"
       inkscape:export-xdpi="227.0358"
       inkscape:export-ydpi="227.0358">
      <g
         id="g4375">
        <path
           style="fill:#fcca7d;fill-opacity:1"
           inkscape:connector-curvature="0"
           d="m 27.332,58.062 c 0,0 1.568,5.591 0,10.689 -1.568,5.098 12.811,0 12.811,0 0,0 -2.057,-7.28 -1.161,-10.689 0.896,-3.409 -11.65,0 -11.65,0 z"
           id="path3113" />
        <path
           style="fill:#fddeaf;fill-opacity:1"
           inkscape:connector-curvature="0"
           d="m 41.565,59.985 c 2.235,-2.564 5.441,-8.179 5.441,-8.179 0,0 0.381,0.594 1.318,0.243 0.937,-0.351 2.767,-3.274 2.884,-6.904 0.117,-3.63 -2.364,-3.159 -2.364,-3.159 0,0 0.34,-6.556 0.575,-9.015 0.234,-2.459 -2.66,-7.398 -6.018,-7.692 -9.2,-1.381 -25.957,-4.259 -25.957,7.693 0,2.47 0.584,9.016 0.584,9.016 0,0 -2.46,-0.468 -2.343,3.162 0.117,3.63 1.99,6.557 2.927,6.909 0.937,0.351 1.23,-0.234 1.23,-0.234 0,0 3.341,5.72 5.12,8.161 1.88,2.581 4.044,4.121 8.485,4.121 4.042,-0.001 5.674,-1.317 8.118,-4.122 z"
           id="path3115" />
        <path
           style="fill:#ededed"
           inkscape:connector-curvature="0"
           d="m 21.05,69.812 2.108,-2.022 2.189,-0.868 8.331,2.122 7.136,-2.903 4.375,1.836 -3.828,17.303 -7.915,8.593 c 0,0 -8.021,-8.359 -8.256,-8.437 -0.235,-0.078 -4.14,-15.624 -4.14,-15.624 z"
           id="path3117" />
        <path
           style="fill:#876b59;fill-opacity:1"
           inkscape:connector-curvature="0"
           d="M 35.775,74.158 C 36.859,73.64 37,72.65 38,71.492 v -0.86 C 38,69.402 36.257,67 35.027,67 H 33.783 32.286 C 31.056,67 30,69.402 30,70.632 v 0.86 c 0,1.159 0.798,2.148 1.881,2.667 l -3.359,18.237 c 1.327,0.91 4.384,1.765 5.257,1.998 0.625,-0.233 3.981,-1.088 5.308,-1.998 L 35.775,74.158 z"
           id="path3119" />
        <path
           style="fill:#735c4c;fill-opacity:1"
           inkscape:connector-curvature="0"
           d="M 34.224,69.211 C 34.466,69.548 35,70.352 35,70.657 v 0.229 c 0,0.057 -0.04,0.113 -0.067,0.169 -0.149,0.3 -0.365,0.754 -0.479,0.848 l -0.738,0.355 -0.507,-0.355 C 33.135,71.868 33,71.791 33,71.136 v -0.5 C 33,70.351 32.742,70 32.941,69 H 33.784 34 m -0.274,9.027 2.436,12.951 c -0.872,0.327 -1.463,1.922 -1.962,2.076 -0.022,0.007 -0.732,0.812 -0.754,0.819 -0.893,-0.257 -1.441,-2.621 -2.114,-2.882 L 33.726,78.027 M 35.027,67 H 33.783 32.286 C 31.056,67 30,69.402 30,70.632 v 0.86 c 0,1.159 0.798,2.148 1.881,2.667 l -3.359,18.237 c 1.327,0.91 4.384,1.765 5.257,1.998 0.625,-0.233 3.864,-1.088 5.191,-1.998 L 35.774,74.159 C 36.858,73.64 37,72.65 38,71.492 v -0.86 C 38,69.402 36.257,67 35.027,67 l 0,0 z"
           id="path3121" />
        <path
           style="fill:#735c4c;fill-opacity:1"
           inkscape:connector-curvature="0"
           d="M 35.027,67 H 33.783 32.286 C 31.056,67 30,69.402 30,70.632 v 0.86 c 0,1.08 0.742,2.008 1.676,2.55 0.584,0.27 1.24,0.425 1.925,0.425 0.547,0 1.226,-0.101 1.942,-0.277 l 0.23,-0.03 C 36.857,73.64 37,72.65 38,71.492 v -0.86 C 38,69.402 36.257,67 35.027,67 z"
           id="path3123" />
        <polygon
           style="opacity:0.1"
           points="25.347,67 24.484,67.303 29.629,75.514 33.14,67 "
           id="polygon3125" />
        <polygon
           style="opacity:0.1"
           points="43.139,66.922 40.814,66.14 34.2,66.922 37.71,75.455 "
           id="polygon3127" />
        <path
           style="fill:#82c4b6;fill-opacity:1"
           inkscape:connector-curvature="0"
           d="M 60.286,73.571 C 56.52,72.567 43.895,69.235 43.895,69.235 c 0,0 -2.633,10.833 -5.533,15.444 -0.003,0.006 -0.004,0.009 -0.006,0.015 -1.172,2.534 -4.572,8.173 -5.197,8.377 l 0.288,0.02 c 0,0 -0.372,-0.007 -0.367,-0.01 0.005,0.003 -0.079,0.01 -0.079,0.01 v -0.02 c 0,-0.205 -3.306,-5.844 -4.478,-8.377 -0.001,-0.003 0.037,-0.005 0.036,-0.008 -2.532,-4.351 -4.428,-14.263 -5.139,-15.641 0,0 -13.107,3.523 -16.873,4.527 C 2.78,74.575 1.97,84.42 1.97,90.669 c 6.796,3.025 18.57,4.999 31.185,4.999 12.615,0 24.916,-1.975 31.712,-4.999 10e-4,-6.249 -0.815,-16.094 -4.581,-17.098 z"
           id="path3129" />
        <path
           style="opacity:0.1"
           inkscape:connector-curvature="0"
           d="m 49.265,83.205 -4.985,-2.538 9.455,-8.833 c -4.7,-1.243 -9.841,-2.6 -9.841,-2.6 0,0 -2.633,10.833 -5.533,15.444 -0.003,0.006 -0.004,0.009 -0.006,0.015 -1.172,2.534 -4.572,8.173 -5.197,8.377 l 0.288,0.02 c 0,0 -0.372,-0.007 -0.367,-0.01 C 33.084,93.083 33,93.09 33,93.09 v -0.02 c 0,-0.205 -3.306,-5.844 -4.478,-8.377 -10e-4,-0.003 0.037,-0.005 0.036,-0.008 -2.532,-4.351 -4.428,-14.263 -5.139,-15.641 0,0 -5.224,1.406 -10.028,2.694 l 9.543,8.93 -4.967,2.525 13.589,12.46 c 0.533,0.007 1.066,0.016 1.602,0.016 0.723,0 1.444,-0.008 2.164,-0.021 L 49.265,83.205 z"
           id="path3131" />
        <path
           style="fill:#418a7a;fill-opacity:1"
           inkscape:connector-curvature="0"
           d="m 52.819,70.984 c 0,0 -2.745,-1.993 -8.681,-3.457 0,0 -2.196,7.624 -4.652,13.86 -2.189,5.557 -5.493,11.256 -6.189,11.616 -0.663,-0.419 -3.418,-6.169 -5.563,-11.616 -2.542,-6.453 -2.481,-6.322 -4.652,-13.86 -5.937,1.464 -8.681,3.457 -8.681,3.457 l 8.447,9.843 -2.968,2.422 13.544,12.419 13.916,-12.42 -2.968,-2.422 8.447,-9.842 z"
           id="path3133" />
        <polygon
           style="fill:#ededed"
           points="24.201,66.922 27.212,65.047 33.14,66.922 29.45,73.275 "
           id="polygon3135" />
        <polygon
           style="fill:#ededed"
           points="43.139,66.922 40.128,65.047 34.2,66.922 37.89,73.275 "
           id="polygon3137" />
        <path
           style="fill:#735c4c;fill-opacity:1"
           inkscape:connector-curvature="0"
           d="m 48.843,41.986 c 0,0 1.168,-6.663 0.99,-9.126 C 49.5,28.25 45.443,22.608 40.143,23.898 33.367,16.347 17,20.907 17,32.86 c 0,2.47 1.027,9.128 1.027,9.128 l 0.628,1.981 c 0,0 1.317,3.402 1.262,0 -0.055,-3.402 1.046,-7.758 4.284,-8.636 3.238,-0.878 4.431,0.709 4.321,2.904 -0.11,2.195 7.265,1.836 10.448,1.012 3.183,-0.823 6.218,-2.5 6.218,-2.5 0,0 1.509,3.033 1.674,5.922 0.165,2.889 1.219,4.356 1.981,-0.685 z"
           id="path3139" />
      </g>
    </g>
    <g
       id="g4391"
       transform="matrix(2.69102,0,0,2.69102,-3833.3306,639.88995)"
       inkscape:export-filename="/home/livia/Área de Trabalho/person.png"
       inkscape:export-xdpi="227.0358"
       inkscape:export-ydpi="227.0358">
      <path
         style="fill:#735c4c;fill-opacity:1"
         inkscape:connector-curvature="0"
         d="m 1744.1866,4.83844 c 0,0 0.064,6.926 -1.698,9.191 5.37,5.688 13.051,6.9 18.519,6.9 0,0 12.707,-1.186 17.6359,-6.268 -2.8629,-3.756 -2.2729,-9.823 -2.2729,-9.823 h -32.184 z"
         id="path3142" />
      <path
         style="fill:#fcca7d;fill-opacity:1"
         inkscape:connector-curvature="0"
         d="m 1754.1396,13.89244 c 0,0 1.568,5.591 0,10.689 -1.568,5.098 12.811,0 12.811,0 0,0 -2.057,-7.28 -1.161,-10.689 0.897,-3.408 -11.65,0 -11.65,0 z"
         id="path3144" />
      <path
         style="fill:#fddeaf;fill-opacity:1"
         inkscape:connector-curvature="0"
         d="m 1768.3726,15.81544 c 2.235,-2.564 5.441,-8.179 5.441,-8.179 0,0 0.381,0.594 1.318,0.243 0.937,-0.351 2.7669,-3.274 2.8839,-6.904 0.117,-3.63 -2.3639,-3.159 -2.3639,-3.159 0,0 0.34,-6.556 0.575,-9.015 0.234,-2.459 -2.66,-7.398 -6.018,-7.692 -7.742,-1.478 -25.957,-4.259 -25.957,7.693 0,2.47 0.584,9.016 0.584,9.016 0,0 -2.46,-0.468 -2.343,3.162 0.117,3.63 1.99,6.557 2.927,6.909 0.937,0.351 1.23,-0.234 1.23,-0.234 0,0 3.341,5.72 5.12,8.161 1.88,2.581 4.044,4.121 8.485,4.121 4.042,-10e-4 5.674,-1.317 8.118,-4.122 z"
         id="path3146" />
      <path
         style="fill:#ededed"
         inkscape:connector-curvature="0"
         d="m 1747.8576,25.64244 4.296,-1.64 8.331,2.122 7.136,-2.903 6.545,1.771 -5.998,16.118 -7.915,8.593 c 0,0 -8.021,-8.359 -8.256,-8.437 -0.235,-0.078 -4.139,-15.624 -4.139,-15.624 z"
         id="path3148" />
      <path
         style="fill:#a6d1ed;fill-opacity:1"
         inkscape:connector-curvature="0"
         d="m 1787.0935,29.40144 c -3.766,-1.004 -13.7279,-4.41 -13.7279,-4.41 0,0 -2.297,11.508 -5.197,16.118 0,0.006 0,-0.006 0,0 -1.172,2.534 -7.577,7.587 -8.202,7.791 l 0.288,0.02 c 0,0 -0.372,-0.007 -0.367,-0.01 0,0.003 -0.079,0.01 -0.079,0.01 v -0.02 c 0,-0.205 -6.717,-5.101 -7.889,-7.635 -10e-4,-0.003 0.662,-0.7 0.66,-0.703 -2.532,-4.351 -5.115,-13.264 -5.826,-14.642 0,0 -9.634,2.476 -13.4,3.48 -3.766,1.004 -4.575,10.849 -4.575,17.098 6.796,3.025 18.57,5 31.185,5 12.615,0 24.9159,-1.975 31.7119,-5 0,-6.248 -0.816,-16.093 -4.582,-17.097 z"
         id="path3150" />
      <path
         style="opacity:0.1"
         inkscape:connector-curvature="0"
         d="m 1776.0726,39.03544 -4.985,-2.538 9.4549,-8.833 c -4.6999,-1.243 -7.1779,-2.674 -7.1779,-2.674 0,0 -1.75,10.18 -4.65,14.79 4.777,-0.102 -0.495,2.338 -0.498,2.344 -1.172,2.534 -7.626,6.571 -8.251,6.776 l 0.288,0.02 c 0,0 -0.372,-0.007 -0.367,-0.01 0,0.003 -0.079,0.01 -0.079,0.01 v -0.02 c 0,-0.205 -6.717,-5.101 -7.889,-7.635 -10e-4,-0.003 -3.992,-1.281 -0.273,-1.016 -2.532,-4.351 -3.097,-13.23 -3.808,-14.608 0,0 -2.835,0.637 -7.64,1.926 l 9.543,8.93 -4.967,2.525 13.589,12.46 c 0.533,0.007 1.066,0.016 1.602,0.016 0.723,0 1.444,-0.008 2.164,-0.021 l 13.944,-12.442 z"
         id="path3152" />
      <path
         style="fill:#7ab4d8;fill-opacity:1"
         inkscape:connector-curvature="0"
         d="m 1779.6265,26.81444 c 0,0 -0.023,-1.221 -5.9599,-2.685 0,0 -2.993,8.635 -5.449,14.871 -2.189,5.557 -7.417,9.472 -8.113,9.832 -0.663,-0.419 -4.711,-3.916 -6.857,-9.363 -2.542,-6.453 -3.219,-6.939 -5.39,-14.478 -5.937,1.464 -6.65,1.823 -6.65,1.823 l 8.447,9.843 -2.968,2.422 13.544,12.419 13.917,-12.42 -2.968,-2.422 8.4469,-9.842 z"
         id="path3154" />
      <polygon
         style="opacity:0.1"
         points="85.484,68.506 90.629,76.697 94.678,70.286 86.347,68.163 "
         id="polygon3158"
         transform="translate(1665.8076,-44.16156)" />
      <polygon
         style="opacity:0.1"
         points="101.814,67.382 94.678,70.286 98.71,76.697 104.139,68.163 "
         id="polygon3160"
         transform="translate(1665.8076,-44.16156)" />
      <polygon
         style="fill:#ededed"
         points="88.212,66.289 94.678,70.286 90.45,74.517 85.201,68.163 "
         id="polygon3162"
         transform="translate(1665.8076,-44.16156)" />
      <polygon
         style="fill:#ededed"
         points="101.128,66.289 94.678,70.286 98.89,74.517 104.139,68.163 "
         id="polygon3164"
         transform="translate(1665.8076,-44.16156)" />
      <circle
         d="m 82.737,52.674999 c 0,1.380712 -1.119289,2.5 -2.5,2.5 -1.380712,0 -2.5,-1.119288 -2.5,-2.5 0,-1.380712 1.119288,-2.5 2.5,-2.5 1.380711,0 2.5,1.119288 2.5,2.5 z"
         style="fill:#a6d1ed;fill-opacity:1"
         sodipodi:ry="2.5"
         sodipodi:rx="2.5"
         sodipodi:cy="52.674999"
         sodipodi:cx="80.237"
         cx="80.237"
         cy="52.674999"
         r="2.5"
         id="circle3168"
         transform="translate(1665.8076,-44.16156)" />
      <circle
         d="m 110.859,52.674999 c 0,1.380712 -1.11929,2.5 -2.5,2.5 -1.38071,0 -2.5,-1.119288 -2.5,-2.5 0,-1.380712 1.11929,-2.5 2.5,-2.5 1.38071,0 2.5,1.119288 2.5,2.5 z"
         style="fill:#a6d1ed;fill-opacity:1"
         sodipodi:ry="2.5"
         sodipodi:rx="2.5"
         sodipodi:cy="52.674999"
         sodipodi:cx="108.359"
         cx="108.359"
         cy="52.674999"
         r="2.5"
         id="circle3170"
         transform="translate(1665.8076,-44.16156)" />
      <path
         id="path3203"
         d="m 1772.3283,-2.52535 c -2.151,-0.543 -4.608,-0.615 -6.221,-0.445 -1.592,0.168 -4.281,0.777 -5.854,0.825 -1.573,-0.048 -4.261,-0.657 -5.854,-0.825 -1.613,-0.17 -4.07,-0.098 -6.221,0.445 -1.871,0.473 -2.066,1.001 -2.01,1.947 0.056,0.945 0.89,1.39 0.89,1.39 0,0 0.389,3.448 2.372,5.157 1.566,1.349 4.942,1.249 6.694,0.322 1.891,-1.001 2.92,-3.659 3.17,-4.952 0.148,-0.767 0.517,-0.928 0.793,-0.928 h 0.334 c 0.275,0 0.644,0.161 0.793,0.928 0.25,1.293 1.279,3.957 3.17,4.958 1.753,0.928 5.128,1.025 6.694,-0.325 1.982,-1.709 2.372,-5.158 2.372,-5.158 0,0 0.834,-0.446 0.89,-1.391 0.054,-0.946 -0.141,-1.475 -2.012,-1.948 z m -16.439,7.733 c -1.73,1.18 -4.693,0.865 -5.873,-0.184 -1.06,-0.942 -1.704,-3.146 -1.547,-4.877 0.157,-1.73 1.573,-1.94 2.596,-2.019 1.023,-0.079 6.201,-0.275 7.079,2.019 0.45,1.176 -0.525,3.881 -2.255,5.061 z m 14.601,-0.184 c -1.18,1.049 -4.142,1.363 -5.873,0.184 -1.73,-1.18 -2.705,-3.885 -2.255,-5.06 0.878,-2.294 6.056,-2.097 7.079,-2.019 1.023,0.078 2.438,0.288 2.596,2.019 0.157,1.73 -0.488,3.934 -1.547,4.876 z"
         inkscape:connector-curvature="0"
         style="fill:#253b4b" />
      <path
         style="fill:#735c4c;fill-opacity:1"
         inkscape:connector-curvature="0"
         d="m 1776.2346,-2.17956 c 0.305,-5.875 0.133,-5.923 0.432,-9.06 0.234,-2.459 -4.392,-14.128 -13.275,-10.458 -4.553,-4.764 -19.14,-1.453 -19.14,10.5 0,2.47 0.557,9.021 0.557,9.021 l 0.933,1.976 c 0,0 1.178,3.402 1.123,0 -0.055,-3.402 4.191,-12.04 7.225,-10.61 2.638,1.244 2.897,5.745 2.787,7.94 -0.11,2.195 6.909,2.196 10.092,1.373 3.183,-0.823 5.92,-3.989 5.92,-3.989 0,0 0.621,1.1 0.786,3.989 0.165,2.889 1.797,4.359 2.56,-0.682 z"
         id="path3166" />
    </g>
    <path
       style="fill:#f58676;fill-opacity:1;stroke:none"
       d="m 783.70152,698.34552 32.60851,-21.40408 -32.60851,-21.40409 0,10.70203 -60.32279,0 0,21.36587 60.32279,0 z"
       id="path4418"
       inkscape:connector-curvature="0"
       sodipodi:nodetypes="cccccccc"
       inkscape:export-filename="/home/livia/Área de Trabalho/person.png"
       inkscape:export-xdpi="227.0358"
       inkscape:export-ydpi="227.0358" />
    <g
       id="g3838"
       transform="matrix(0.55624881,0,0,0.55624881,706.64207,783.20117)"
       inkscape:transform-center-x="-138.50595"
       inkscape:transform-center-y="-73.361649"
       inkscape:export-filename="/home/livia/Área de Trabalho/lp_120.png"
       inkscape:export-xdpi="999.86847"
       inkscape:export-ydpi="999.86847">
      <path
         id="path3785"
         d="m 302.113,367.346 c 4.293,4.111 6.354,9.388 6.354,15.778 0,12.294 -9.986,18.248 -22.314,18.248 -6.037,0 -11.521,-2.4 -15.535,-6.318 L 204.812,359.9 49.4,297.932 76.86,153 h 182.575 l 154.838,137.095 c 4.295,4.049 8.449,9.656 8.449,16.036 0,12.303 -11.197,22.237 -23.518,22.237 -6.146,0 -10.855,-1.661 -14.902,-5.682 4.047,4.021 6.549,9.596 6.549,15.753 0,12.314 -9.992,22.291 -22.332,22.291 -5.59,0 -10.709,-2.069 -14.617,-5.492 l -12.238,-11.67 c 4.373,4.071 7.113,9.893 7.113,16.333 0,12.306 -9.986,22.302 -22.293,22.302 -5.84,0 -11.152,-2.239 -15.111,-5.895 l -9.26,-8.962 z"
         inkscape:connector-curvature="0"
         style="fill:#ffccaa;fill-opacity:1" />
      <polygon
         id="polygon3787"
         points="29,318.413 29,131.749 132.531,152.492 70.396,339.153 "
         style="fill:#ffffff" />
      <polygon
         id="polygon3789"
         points="8,339.153 8,111.009 111.661,140.18 48.292,359.9 "
         style="fill:#82c4b6;fill-opacity:1" />
      <g
         id="g3791"
         style="opacity:0.5">
        <g
           id="g3793">
          <defs
             id="defs3795">
            <rect
               y="266"
               x="323"
               width="67"
               id="SVGID_1_-3"
               height="62" />
          </defs>
          <line
             id="line3798"
             y2="322.867"
             y1="271.15799"
             x2="384.50601"
             x1="328.21899"
             stroke-miterlimit="10"
             style="fill:none;stroke:#fbad3e;stroke-linecap:round;stroke-linejoin:round;stroke-miterlimit:10" />
        </g>
      </g>
      <g
         id="g3800"
         style="opacity:0.5">
        <g
           id="g3802">
          <defs
             id="defs3804">
            <rect
               y="290"
               x="284"
               width="64"
               id="SVGID_3_"
               height="60" />
          </defs>
          <line
             id="line3807"
             y2="344.46899"
             y1="295.03799"
             x2="342.55899"
             x1="289.00601"
             stroke-miterlimit="10"
             style="fill:none;stroke:#fbad3e;stroke-linecap:round;stroke-linejoin:round;stroke-miterlimit:10" />
        </g>
      </g>
      <g
         id="g3809"
         style="opacity:0.5">
        <g
           id="g3811">
          <defs
             id="defs3813">
            <rect
               y="320"
               x="252"
               width="55"
               id="SVGID_5_"
               height="52" />
          </defs>
          <line
             id="line3816"
             y2="367.26599"
             y1="324.84201"
             x2="302.21301"
             x1="256.80301"
             stroke-miterlimit="10"
             style="fill:none;stroke:#fbad3e;stroke-linecap:round;stroke-linejoin:round;stroke-miterlimit:10" />
        </g>
      </g>
      <path
         id="path3818"
         d="M 464,173.23 273.344,131.876 c -16.644,-0.871 -31.494,2.632 -39.374,21.029 l -39.413,86.922 c 4.395,5.696 21.032,16.364 32.211,16.364 11.19,0 23.02,-10.199 30.028,-25.11 L 277.543,194 h 20.74 L 424.187,298 H 464 V 173.23 z"
         inkscape:connector-curvature="0"
         style="fill:#ffb380" />
      <path
         id="path3820"
         d="m 224.731,325.877 c 0.632,-2.129 0.962,-4.406 0.962,-6.746 0,-11.85 -8.938,-21.449 -20.001,-21.449 -9.084,0 -16.76,6.472 -19.236,15.344 l -11.753,39.848 c -0.527,1.996 -0.86,4.113 -0.86,6.299 0,11.85 8.982,21.462 20.046,21.462 8.993,0 16.613,-6.36 19.125,-15.11 l 11.717,-39.648 z"
         inkscape:connector-curvature="0"
         style="fill:#ffb380" />
      <path
         id="path3822"
         d="m 183.2,305.125 c 0.653,-2.129 1.018,-4.375 1.018,-6.704 0,-11.889 -8.973,-21.489 -20.026,-21.489 -9.095,0 -16.771,6.491 -19.226,15.372 l -11.738,39.841 c -0.562,1.996 -0.86,4.091 -0.86,6.279 0,11.879 8.977,21.477 20.02,21.477 8.993,0 16.635,-6.367 19.145,-15.117 L 183.2,305.125 z"
         inkscape:connector-curvature="0"
         style="fill:#ffb380" />
      <path
         id="path3824"
         d="m 141.644,289.661 c 0.683,-2.511 1.088,-5.204 1.088,-8.001 0,-14.047 -9.697,-25.474 -21.671,-25.474 -9.825,0 -18.128,7.722 -20.786,18.264 l -8.46,31.768 c -0.598,2.37 -0.933,4.894 -0.933,7.453 0,14.1 9.717,25.47 21.672,25.47 9.746,0 17.975,-7.522 20.709,-17.933 l 8.381,-31.547 z"
         inkscape:connector-curvature="0"
         style="fill:#ffb380" />
      <path
         id="path3826"
         d="m 266.111,349.087 c 0.684,-2.3 1.068,-4.739 1.068,-7.291 0,-12.932 -9.344,-23.383 -20.812,-23.383 -9.469,0 -17.445,7.046 -19.986,16.728 l -10.173,36.033 c -0.583,2.168 -0.881,4.477 -0.881,6.836 0,12.911 9.312,23.362 20.801,23.362 9.347,0 17.246,-6.927 19.899,-16.435 l 10.084,-35.85 z"
         inkscape:connector-curvature="0"
         style="fill:#ffb380" />
      <polygon
         id="polygon3828"
         points="485,318 485,131.749 381.27,147.098 443.465,318 "
         style="fill:#ffffff" />
      <polygon
         id="polygon3830"
         points="506,339.153 506,111.009 402.143,131.749 465.609,359.9 "
         style="fill:#82c4b6;fill-opacity:1" />
    </g>
    <g
       transform="matrix(1.25,0,0,-1.25,3.5860909,1019.5916)"
       inkscape:label="ilustra_analytics"
       id="g3943">
      <g
         id="g3945">
        <g
           clip-path="url(#clipPath3949)"
           id="g3947">
          <g
             id="g3953">
            <g
               id="g3955" />
            <g
               id="g3961">
              <g
                 id="g3963"
                 clip-path="url(#clipPath3957)"
                 style="opacity:0.99215698">
                <g
                   id="g3965"
                   transform="translate(10.1226,325.4082)">
                  <path
                     id="path3967"
                     style="fill:#ecf0f1;fill-opacity:1;fill-rule:nonzero;stroke:none"
                     d="m 0,0 379.051,0 c 1.918,0 3.474,-1.539 3.474,-3.475 l 0,-245.921 c 0,-1.932 -1.556,-3.49 -3.474,-3.49 l -379.051,0 c -1.933,0 -3.475,1.558 -3.475,3.49 l 0,245.921 C -3.475,-1.539 -1.933,0 0,0"
                     inkscape:connector-curvature="0" />
                </g>
              </g>
            </g>
          </g>
          <g
             transform="translate(10.5581,325.4082)"
             id="g3969">
            <path
               id="path3971"
               style="fill:#36434f;fill-opacity:1;fill-rule:nonzero;stroke:none"
               d="m 0,0 378.18,0 c 2.166,0 3.91,-1.743 3.91,-3.908 l 0,-215.561 c 0,-2.165 -1.744,-3.91 -3.91,-3.91 l -378.18,0 c -2.165,0 -3.91,1.745 -3.91,3.91 l 0,215.561 C -3.91,-1.743 -2.165,0 0,0"
               inkscape:connector-curvature="0" />
          </g>
          <g
             transform="translate(20.1553,316.2627)"
             id="g3973">
            <path
               id="path3975"
               style="fill:#ffffff;fill-opacity:1;fill-rule:nonzero;stroke:none"
               d="m 0,0 358.985,0 c 2.415,0 4.347,-1.945 4.347,-4.358 l 0,-196.368 c 0,-2.415 -1.932,-4.346 -4.347,-4.346 l -358.985,0 c -2.415,0 -4.347,1.931 -4.347,4.346 l 0,196.368 C -4.347,-1.945 -2.415,0 0,0"
               inkscape:connector-curvature="0" />
          </g>
          <g
             transform="translate(75.5103,228.2246)"
             id="g3977">
            <path
               id="path3979"
               style="fill:#878f9d;fill-opacity:1;fill-rule:nonzero;stroke:none"
               d="M 0,0 0.046,0 C 0.015,-0.249 0,-0.499 0,-0.763 L 0,0 z"
               inkscape:connector-curvature="0" />
          </g>
          <g
             transform="translate(95.2339,228.2246)"
             id="g3981">
            <path
               id="path3983"
               style="fill:#878f9d;fill-opacity:1;fill-rule:nonzero;stroke:none"
               d="M 0,0 0,-0.763 C 0,-0.499 -0.015,-0.249 -0.047,0 L 0,0 z"
               inkscape:connector-curvature="0" />
          </g>
          <g
             transform="translate(143.2036,47.4707)"
             id="g3985">
            <path
               id="path3987"
               style="fill:#bec4c8;fill-opacity:1;fill-rule:nonzero;stroke:none"
               d="m 0,0 4.907,25.052 103.073,0 L 112.891,0 0,0 z"
               inkscape:connector-curvature="0" />
          </g>
          <g
             transform="translate(127.0781,15.9063)"
             id="g3989">
            <path
               id="path3991"
               style="fill:#ecf0f1;fill-opacity:1;fill-rule:nonzero;stroke:none"
               d="m 0,0 16.25,31.564 112.641,0 L 145.139,0 0,0 z"
               inkscape:connector-curvature="0" />
          </g>
          <path
             id="path3993"
             style="fill:#bec4c8;fill-opacity:1;fill-rule:nonzero;stroke:none"
             d="m 127.11,15.906 145.077,0 0,-11.343 -145.077,0 0,11.343 z"
             inkscape:connector-curvature="0" />
          <g
             transform="translate(196.9526,91.2344)"
             id="g3995">
            <path
               id="path3997"
               style="fill:#36434f;fill-opacity:1;fill-rule:nonzero;stroke:none"
               d="m 0,0 5.375,0 c 1.029,0 1.854,-0.827 1.854,-1.856 l 0,-5.374 c 0,-1.03 -0.825,-1.855 -1.854,-1.855 l -5.375,0 c -1.013,0 -1.838,0.825 -1.838,1.855 l 0,5.374 C -1.838,-0.827 -1.013,0 0,0"
               inkscape:connector-curvature="0" />
          </g>
          <g
             transform="translate(48.8154,197.6689)"
             id="g3999">
            <path
               id="path4001"
               style="fill:#4683aa;fill-opacity:1;fill-rule:nonzero;stroke:none"
               d="M 0,0 33.675,35.375 50.114,36.434 79.68,14.352 70.479,4.047 45.083,24.334 37.404,21.59 17.481,-0.42 0,0 z"
               inkscape:connector-curvature="0" />
          </g>
          <g
             transform="translate(157.8159,217.9097)"
             id="g4003">
            <path
               id="path4005"
               style="fill:#4683aa;fill-opacity:1;fill-rule:nonzero;stroke:none"
               d="m 0,0 8.647,23.651 21.992,4.897 33.153,-41.384 3.681,2.208 18.401,29.688 15.703,7.361 34.596,-17.911 9.53,1.309 22.12,35.5 11.778,-4.668 L 158.745,5.603 139.363,-5.889 104.275,11.454 95.65,11.699 77.041,-19.423 58.149,-25.559 25.313,16.757 l -5.685,0 L 13.249,-1.476 0,0 z"
               inkscape:connector-curvature="0" />
          </g>
          <g
             transform="translate(179.4331,140.0508)"
             id="g4007">
            <path
               id="path4009"
               style="fill:#735c4c;fill-opacity:1;fill-rule:nonzero;stroke:none"
               d="m 0,0 55.637,-54.281 10.584,10.61 -55.224,55.255"
               inkscape:connector-curvature="0" />
          </g>
          <g
             transform="translate(247.5962,91.4014)"
             id="g4011">
            <path
               id="path4013"
               style="fill:#735c4c;fill-opacity:1;fill-rule:nonzero;stroke:none"
               d="m 0,0 c 0,-4.159 -3.374,-7.533 -7.536,-7.533 -4.159,0 -7.533,3.374 -7.533,7.533 0,4.162 3.374,7.536 7.533,7.536 C -3.374,7.536 0,4.162 0,0"
               inkscape:connector-curvature="0" />
          </g>
          <g
             transform="translate(197.686,176.0049)"
             id="g4015">
            <path
               id="path4017"
               style="fill:#cccccc;fill-opacity:1;fill-rule:nonzero;stroke:none"
               d="m 0,0 c 0,-24.595 -19.938,-44.532 -44.533,-44.532 -24.594,0 -44.532,19.937 -44.532,44.532 0,24.594 19.938,44.532 44.532,44.532 C -19.938,44.532 0,24.594 0,0"
               inkscape:connector-curvature="0" />
          </g>
          <g
             transform="translate(193.269,176.5566)"
             id="g4019">
            <path
               id="path4021"
               style="fill:#eff0f0;fill-opacity:1;fill-rule:nonzero;stroke:none"
               d="m 0,0 c 0,-21.851 -17.712,-39.563 -39.563,-39.563 -21.852,0 -39.564,17.712 -39.564,39.563 0,21.851 17.712,39.564 39.564,39.564 C -17.712,39.564 0,21.851 0,0"
               inkscape:connector-curvature="0" />
          </g>
          <g
             transform="translate(116.98,191.2949)"
             id="g4023">
            <path
               id="path4025"
               style="fill:#4683aa;fill-opacity:1;fill-rule:nonzero;stroke:none"
               d="M 0,0 21.629,-17.137 51.631,-12.72 61.637,16 c 0,0 -3.45,2.747 -6.781,4.436 -4.294,2.177 -8.466,3.201 -8.466,3.201 L 38.75,2.743 29.912,-1.311 9.714,14.167 c 0,0 -2.892,-2.565 -5.654,-6.58 C 1.449,3.794 0,0 0,0"
               inkscape:connector-curvature="0" />
          </g>
          <g
             transform="translate(105.0415,231.0156)"
             id="g4027">
            <path
               id="path4029"
               style="fill:#cccccc;fill-opacity:1;fill-rule:nonzero;stroke:none"
               d="m 0,0 c 0,-8.208 -6.655,-14.863 -14.864,-14.863 -8.209,0 -14.864,6.655 -14.864,14.863 0,8.21 6.655,14.865 14.864,14.865 C -6.655,14.865 0,8.21 0,0"
               inkscape:connector-curvature="0" />
          </g>
          <g
             transform="translate(93.8979,231.7358)"
             id="g4031">
            <path
               id="path4033"
               style="fill:#ffffff;fill-opacity:1;fill-rule:nonzero;stroke:none"
               d="m 0,0 c 0,-2.12 -1.719,-3.838 -3.84,-3.838 -2.119,0 -3.838,1.718 -3.838,3.838 0,2.121 1.719,3.839 3.838,3.839 C -1.719,3.839 0,2.121 0,0"
               inkscape:connector-curvature="0" />
          </g>
          <g
             transform="translate(193.3696,245.7373)"
             id="g4035">
            <path
               id="path4037"
               style="fill:#82c4b6;fill-opacity:1;fill-rule:nonzero;stroke:none"
               d="m 0,0 c 0,-8.208 -6.654,-14.864 -14.863,-14.864 -8.209,0 -14.865,6.656 -14.865,14.864 0,8.209 6.656,14.864 14.865,14.864 C -6.654,14.864 0,8.209 0,0"
               inkscape:connector-curvature="0" />
          </g>
          <g
             transform="translate(182.2271,246.4575)"
             id="g4039">
            <path
               id="path4041"
               style="fill:#ffffff;fill-opacity:1;fill-rule:nonzero;stroke:none"
               d="m 0,0 c 0,-2.119 -1.72,-3.838 -3.84,-3.838 -2.12,0 -3.839,1.719 -3.839,3.838 0,2.121 1.719,3.839 3.839,3.839 C -1.72,3.839 0,2.121 0,0"
               inkscape:connector-curvature="0" />
          </g>
          <g
             transform="translate(268.4487,238.3765)"
             id="g4043">
            <path
               id="path4045"
               style="fill:#a6d1ed;fill-opacity:1;fill-rule:nonzero;stroke:none"
               d="m 0,0 c 0,-8.208 -6.654,-14.864 -14.863,-14.864 -8.209,0 -14.865,6.656 -14.865,14.864 0,8.209 6.656,14.864 14.865,14.864 C -6.654,14.864 0,8.209 0,0"
               inkscape:connector-curvature="0" />
          </g>
          <g
             transform="translate(257.3062,239.0967)"
             id="g4047">
            <path
               id="path4049"
               style="fill:#ffffff;fill-opacity:1;fill-rule:nonzero;stroke:none"
               d="m 0,0 c 0,-2.119 -1.72,-3.838 -3.84,-3.838 -2.119,0 -3.839,1.719 -3.839,3.838 0,2.121 1.72,3.839 3.839,3.839 C -1.72,3.839 0,2.121 0,0"
               inkscape:connector-curvature="0" />
          </g>
          <g
             transform="translate(350.8892,266.3472)"
             id="g4051">
            <path
               id="path4053"
               style="fill:#82c4b6;fill-opacity:1;fill-rule:nonzero;stroke:none"
               d="m 0,0 c 0,-8.208 -6.655,-14.864 -14.864,-14.864 -8.209,0 -14.864,6.656 -14.864,14.864 0,8.209 6.655,14.864 14.864,14.864 C -6.655,14.864 0,8.209 0,0"
               inkscape:connector-curvature="0" />
          </g>
          <g
             transform="translate(339.7456,267.0674)"
             id="g4055">
            <path
               id="path4057"
               style="fill:#ffffff;fill-opacity:1;fill-rule:nonzero;stroke:none"
               d="m 0,0 c 0,-2.119 -1.72,-3.838 -3.84,-3.838 -2.119,0 -3.839,1.719 -3.839,3.838 0,2.121 1.72,3.839 3.839,3.839 C -1.72,3.839 0,2.121 0,0"
               inkscape:connector-curvature="0" />
          </g>
          <g
             transform="translate(239.0063,197.1567)"
             id="g4059">
            <path
               id="path4061"
               style="fill:#cccccc;fill-opacity:1;fill-rule:nonzero;stroke:none"
               d="m 0,0 c 0,-8.208 -6.655,-14.864 -14.864,-14.864 -8.209,0 -14.864,6.656 -14.864,14.864 0,8.209 6.655,14.864 14.864,14.864 C -6.655,14.864 0,8.209 0,0"
               inkscape:connector-curvature="0" />
          </g>
          <g
             transform="translate(227.8628,197.877)"
             id="g4063">
            <path
               id="path4065"
               style="fill:#ffffff;fill-opacity:1;fill-rule:nonzero;stroke:none"
               d="m 0,0 c 0,-2.119 -1.719,-3.839 -3.84,-3.839 -2.119,0 -3.838,1.72 -3.838,3.839 0,2.12 1.719,3.839 3.838,3.839 C -1.719,3.839 0,2.12 0,0"
               inkscape:connector-curvature="0" />
          </g>
          <g
             transform="translate(318.5015,219.2388)"
             id="g4067">
            <path
               id="path4069"
               style="fill:#f58676;fill-opacity:1;fill-rule:nonzero;stroke:none"
               d="m 0,0 c 0,-8.208 -6.654,-14.864 -14.863,-14.864 -8.209,0 -14.865,6.656 -14.865,14.864 0,8.209 6.656,14.864 14.865,14.864 C -6.654,14.864 0,8.209 0,0"
               inkscape:connector-curvature="0" />
          </g>
          <g
             transform="translate(307.3589,219.959)"
             id="g4071">
            <path
               id="path4073"
               style="fill:#ffffff;fill-opacity:1;fill-rule:nonzero;stroke:none"
               d="m 0,0 c 0,-2.119 -1.72,-3.838 -3.84,-3.838 -2.119,0 -3.839,1.719 -3.839,3.838 0,2.121 1.72,3.839 3.839,3.839 C -1.72,3.839 0,2.121 0,0"
               inkscape:connector-curvature="0" />
          </g>
          <g
             transform="translate(174.2808,181.3008)"
             id="g4075">
            <path
               id="path4077"
               style="fill:#a6d1ed;fill-opacity:1;fill-rule:nonzero;stroke:none"
               d="m 0,0 c 0,-11.272 -9.141,-20.414 -20.414,-20.414 -11.274,0 -20.415,9.142 -20.415,20.414 0,11.274 9.141,20.415 20.415,20.415 C -9.141,20.415 0,11.274 0,0"
               inkscape:connector-curvature="0" />
          </g>
          <g
             transform="translate(158.9761,182.2891)"
             id="g4079">
            <path
               id="path4081"
               style="fill:#ffffff;fill-opacity:1;fill-rule:nonzero;stroke:none"
               d="m 0,0 c 0,-2.91 -2.361,-5.271 -5.273,-5.271 -2.911,0 -5.273,2.361 -5.273,5.271 0,2.913 2.362,5.273 5.273,5.273 C -2.361,5.273 0,2.913 0,0"
               inkscape:connector-curvature="0" />
          </g>
          <g
             transform="translate(72.6543,194.2124)"
             id="g4083">
            <path
               id="path4085"
               style="fill:#f58676;fill-opacity:1;fill-rule:nonzero;stroke:none"
               d="m 0,0 c 0,-8.208 -6.655,-14.864 -14.864,-14.864 -8.209,0 -14.864,6.656 -14.864,14.864 0,8.21 6.655,14.864 14.864,14.864 C -6.655,14.864 0,8.21 0,0"
               inkscape:connector-curvature="0" />
          </g>
          <g
             transform="translate(61.5112,194.9326)"
             id="g4087">
            <path
               id="path4089"
               style="fill:#ffffff;fill-opacity:1;fill-rule:nonzero;stroke:none"
               d="m 0,0 c 0,-2.119 -1.72,-3.839 -3.84,-3.839 -2.119,0 -3.839,1.72 -3.839,3.839 0,2.121 1.72,3.838 3.839,3.838 C -1.72,3.838 0,2.121 0,0"
               inkscape:connector-curvature="0" />
          </g>
        </g>
      </g>
    </g>
  </g>
</svg>
